# xmcd
#
# Track frame offsets:
# 150
# 13191
# 22843
# 38104
# 53665
# 63257
# 76807
# 91758
# 101280
# 115364
# 127234
# 139345
#
# Disc length: 2051 seconds
#
#
# Revision: 2
# Processed by: cddbd v1.5.1PL0 Copyright (c) Steve Scherf et al.
# Submitted via: FreeRIP 2.942 
#
DISCID=9308010c
DTITLE=Wilma Lee and Stoney Cooper - Walking My Lord Up Calvary Hill
DYEAR=2003
DGENRE=Gospel
TTITLE0=Walking My Lord Up Calvary Hill
TTITLE1=Give Me The Roses While I Live
TTITLE2=Tramp On The Street
TTITLE3=Thirty Pieces Of Silver
TTITLE4=This Old House
TTITLE5=The Drunken Driver
TTITLE6=Great Speckled Bird
TTITLE7=I'm Going Home On The Morning Train
TTITLE8=I Dreamed About Mama Last Night
TTITLE9=Wreck On The Highway
TTITLE10=Little Rosewood Casket
TTITLE11=The Legend Of The Dogwood Trees
EXTD=King Records
EXTT0=
EXTT1=
EXTT2=
EXTT3=
EXTT4=
EXTT5=
EXTT6=
EXTT7=
EXTT8=
EXTT9=
EXTT10=
EXTT11=
PLAYORDER=
